<svg width="512" height="642" viewBox="0 0 512 642" fill="none" xmlns="http://www.w3.org/2000/svg">
<rect x="157.539" width="354.462" height="519.877" rx="50.4123" fill="url(#paint0_linear_60_133)"/>
<rect x="201.648" y="86.6445" width="267.815" height="78.7692" rx="15.7538" fill="white"/>
<rect x="209.525" y="195.348" width="118.154" height="118.154" rx="7.87692" fill="white"/>
<path d="M269.526 223.705L269.443 286.72" stroke="#84CC16" stroke-width="11.0277" stroke-linecap="round" stroke-linejoin="round"/>
<path d="M237.883 255.213H300.898" stroke="#84CC16" stroke-width="11.0277" stroke-linecap="round" stroke-linejoin="round"/>
<rect x="343.434" y="195.348" width="118.154" height="118.154" rx="7.87692" fill="white"/>
<path d="M371.791 255.211H434.806" stroke="#84CC16" stroke-width="11.0277" stroke-linecap="round" stroke-linejoin="round"/>
<rect x="209.525" y="329.256" width="118.154" height="118.154" rx="7.87692" fill="white"/>
<rect x="343.434" y="329.256" width="118.154" height="118.154" rx="7.87692" fill="white"/>
<path d="M371.299 413.145C369.247 413.145 367.505 412.428 366.07 410.993C364.636 409.559 363.917 407.815 363.914 405.76C363.911 403.706 364.63 401.963 366.07 400.532C367.511 399.101 369.254 398.382 371.299 398.376H435.299C437.35 398.376 439.094 399.094 440.532 400.532C441.969 401.969 442.687 403.712 442.683 405.76C442.68 407.808 441.963 409.553 440.532 410.993C439.101 412.434 437.357 413.151 435.299 413.145H371.299ZM371.299 378.683C369.247 378.683 367.505 377.966 366.07 376.532C364.636 375.098 363.917 373.353 363.914 371.299C363.911 369.244 364.63 367.501 366.07 366.07C367.511 364.639 369.254 363.921 371.299 363.914H435.299C437.35 363.914 439.094 364.633 440.532 366.07C441.969 367.508 442.687 369.251 442.683 371.299C442.68 373.347 441.963 375.091 440.532 376.532C439.101 377.973 437.357 378.69 435.299 378.683H371.299Z" fill="#84CC16"/>
<rect y="281.992" width="354.462" height="354.462" rx="177.231" fill="url(#paint1_linear_60_133)"/>
<path d="M150.086 371.372V434.844H137.845V383.943L123.903 392.592L118.563 383.943L139.074 371.372H150.086ZM162.8 427.14V436.734H122.013V427.14H162.8ZM213.285 369.954C217.98 369.954 221.918 370.789 225.101 372.459C228.314 374.129 230.74 376.381 232.379 379.217C234.017 382.021 234.836 385.109 234.836 388.48C234.836 391.253 234.364 393.963 233.419 396.609C232.473 399.256 230.929 402.044 228.787 404.975C226.676 407.905 223.872 411.166 220.374 414.758C216.877 418.318 212.56 422.383 207.425 426.951H236.349L234.978 436.734H193.152V427.613C197.657 423.265 201.549 419.437 204.825 416.128C208.102 412.789 210.843 409.843 213.049 407.29C215.286 404.738 217.05 402.454 218.342 400.438C219.665 398.39 220.611 396.483 221.178 394.719C221.745 392.954 222.029 391.19 222.029 389.426C222.029 386.432 221.162 384.069 219.429 382.336C217.728 380.603 215.333 379.737 212.245 379.737C209.504 379.737 207.173 380.273 205.251 381.344C203.36 382.384 201.501 384.085 199.674 386.448L191.828 380.493C194.318 377.153 197.279 374.57 200.714 372.742C204.148 370.883 208.338 369.954 213.285 369.954ZM145.502 493.14V512.328H164.359V522.158H145.502V541.347H134.773V522.158H116.058V512.328H134.773V493.14H145.502ZM213.049 479.954C217.554 479.954 221.398 480.71 224.581 482.222C227.794 483.703 230.252 485.704 231.953 488.225C233.655 490.745 234.506 493.518 234.506 496.543C234.506 499.252 233.938 501.663 232.804 503.774C231.701 505.853 230.158 507.586 228.173 508.972C226.219 510.359 223.951 511.383 221.367 512.044C224.234 512.391 226.802 513.179 229.071 514.407C231.371 515.605 233.198 517.338 234.553 519.606C235.908 521.843 236.585 524.71 236.585 528.208C236.585 531.894 235.593 535.25 233.608 538.275C231.623 541.299 228.803 543.71 225.148 545.506C221.524 547.27 217.224 548.152 212.245 548.152C207.803 548.152 203.691 547.365 199.91 545.789C196.129 544.182 192.915 541.835 190.269 538.747L197.594 532.131C199.453 534.305 201.58 535.896 203.975 536.904C206.401 537.912 208.921 538.416 211.536 538.416C215.223 538.416 218.169 537.471 220.374 535.581C222.611 533.659 223.73 530.965 223.73 527.499C223.73 524.915 223.242 522.852 222.265 521.308C221.288 519.732 219.902 518.598 218.106 517.905C216.341 517.18 214.246 516.818 211.82 516.818H206.007L207.472 507.933H211.584C213.569 507.933 215.365 507.586 216.972 506.893C218.61 506.2 219.902 505.144 220.847 503.726C221.824 502.309 222.312 500.528 222.312 498.386C222.312 495.55 221.32 493.345 219.335 491.769C217.35 490.162 214.861 489.359 211.867 489.359C209.158 489.359 206.747 489.863 204.636 490.871C202.525 491.879 200.477 493.313 198.492 495.172L192.017 488.319C194.916 485.515 198.114 483.42 201.612 482.033C205.14 480.647 208.953 479.954 213.049 479.954Z" fill="white"/>
<defs>
<linearGradient id="paint0_linear_60_133" x1="512.001" y1="-33.8708" x2="335.557" y2="281.994" gradientUnits="userSpaceOnUse">
<stop stop-color="#D9F99D"/>
<stop offset="1" stop-color="#84CC16"/>
</linearGradient>
<linearGradient id="paint1_linear_60_133" x1="90.5846" y1="606.521" x2="829.44" y2="-400.937" gradientUnits="userSpaceOnUse">
<stop stop-color="#1F1F1F"/>
<stop offset="1" stop-color="#F5F5F5"/>
</linearGradient>
</defs>
</svg>
