<svg width="533" height="620" viewBox="0 0 533 620" fill="none" xmlns="http://www.w3.org/2000/svg">
<rect y="129.541" width="489.617" height="489.617" rx="69.9454" fill="url(#paint0_linear_60_157)"/>
<path d="M84.3757 248.757V314.512H71.6946V261.78L57.2509 270.74L51.7182 261.78L72.9676 248.757H84.3757ZM97.5464 306.531V316.471H55.2924V306.531H97.5464ZM149.848 247.288C154.712 247.288 158.792 248.153 162.089 249.883C165.418 251.613 167.931 253.947 169.629 256.884C171.326 259.789 172.175 262.988 172.175 266.481C172.175 269.353 171.685 272.16 170.706 274.902C169.727 277.644 168.127 280.533 165.908 283.568C163.721 286.604 160.816 289.982 157.193 293.703C153.569 297.392 149.097 301.603 143.777 306.336H173.742L172.322 316.471H128.991V307.021C133.658 302.517 137.689 298.551 141.084 295.123C144.479 291.663 147.319 288.611 149.603 285.968C151.921 283.324 153.749 280.957 155.087 278.868C156.458 276.746 157.437 274.772 158.025 272.944C158.612 271.116 158.906 269.288 158.906 267.46C158.906 264.359 158.009 261.911 156.213 260.116C154.451 258.32 151.97 257.423 148.771 257.423C145.931 257.423 143.516 257.978 141.525 259.088C139.566 260.165 137.64 261.927 135.747 264.375L127.62 258.206C130.198 254.746 133.267 252.07 136.824 250.176C140.382 248.251 144.724 247.288 149.848 247.288ZM79.6264 386.948V406.827H99.1621V417.011H79.6264V436.889H68.5121V417.011H49.1232V406.827H68.5121V386.948H79.6264ZM149.603 373.288C154.271 373.288 158.253 374.071 161.55 375.638C164.879 377.172 167.426 379.245 169.188 381.856C170.951 384.467 171.832 387.34 171.832 390.473C171.832 393.28 171.245 395.778 170.069 397.964C168.927 400.119 167.328 401.914 165.271 403.35C163.247 404.786 160.897 405.847 158.221 406.533C161.191 406.892 163.851 407.708 166.201 408.981C168.584 410.221 170.477 412.016 171.881 414.367C173.285 416.684 173.986 419.655 173.986 423.278C173.986 427.097 172.958 430.573 170.902 433.707C168.845 436.84 165.924 439.337 162.138 441.198C158.384 443.026 153.928 443.94 148.771 443.94C144.169 443.94 139.909 443.124 135.992 441.491C132.075 439.827 128.746 437.395 126.004 434.196L133.593 427.342C135.519 429.594 137.722 431.242 140.203 432.287C142.716 433.331 145.327 433.853 148.037 433.853C151.856 433.853 154.908 432.874 157.193 430.916C159.51 428.925 160.669 426.134 160.669 422.543C160.669 419.867 160.163 417.729 159.151 416.129C158.139 414.497 156.703 413.322 154.842 412.604C153.014 411.853 150.844 411.478 148.33 411.478H142.308L143.826 402.273H148.086C150.142 402.273 152.003 401.914 153.667 401.196C155.365 400.478 156.703 399.384 157.682 397.916C158.694 396.447 159.2 394.602 159.2 392.383C159.2 389.445 158.172 387.16 156.115 385.528C154.059 383.863 151.48 383.031 148.379 383.031C145.572 383.031 143.075 383.553 140.888 384.598C138.701 385.642 136.58 387.128 134.523 389.053L127.815 381.954C130.818 379.049 134.132 376.878 137.755 375.442C141.41 374.006 145.36 373.288 149.603 373.288Z" fill="white"/>
<rect x="218.23" y="45.6074" width="314.754" height="461.639" rx="44.765" fill="url(#paint1_linear_60_157)"/>
<rect x="257.398" y="122.547" width="237.814" height="69.9454" rx="13.9891" fill="white"/>
<rect x="264.393" y="219.07" width="104.918" height="104.918" rx="6.99454" fill="white"/>
<path d="M317.673 244.25L317.6 300.206" stroke="#1F1F1F" stroke-width="9.79235" stroke-linecap="round" stroke-linejoin="round"/>
<path d="M289.574 272.229H345.531" stroke="#1F1F1F" stroke-width="9.79235" stroke-linecap="round" stroke-linejoin="round"/>
<rect x="383.299" y="219.07" width="104.918" height="104.918" rx="6.99454" fill="white"/>
<path d="M408.479 272.23H464.435" stroke="#1F1F1F" stroke-width="9.79235" stroke-linecap="round" stroke-linejoin="round"/>
<rect x="264.393" y="337.977" width="104.918" height="104.918" rx="6.99454" fill="white"/>
<path d="M297.15 415.615C296.343 415.615 295.554 415.375 294.883 414.927C294.212 414.478 293.69 413.841 293.381 413.096C293.072 412.35 292.991 411.53 293.149 410.739C293.306 409.947 293.694 409.221 294.265 408.65L335.066 367.848C335.836 367.105 336.867 366.694 337.936 366.703C339.006 366.713 340.03 367.142 340.786 367.898C341.543 368.655 341.972 369.678 341.981 370.748C341.99 371.818 341.579 372.848 340.836 373.618L300.034 414.419C299.269 415.184 298.232 415.615 297.15 415.615Z" fill="#1F1F1F"/>
<path d="M337.953 415.615C336.871 415.615 335.833 415.184 335.068 414.419L294.266 373.618C293.523 372.848 293.112 371.818 293.121 370.748C293.131 369.678 293.56 368.655 294.316 367.898C295.073 367.142 296.096 366.713 297.166 366.703C298.236 366.694 299.266 367.105 300.036 367.848L340.837 408.65C341.408 409.221 341.796 409.947 341.953 410.739C342.111 411.53 342.03 412.35 341.721 413.096C341.413 413.841 340.89 414.478 340.219 414.927C339.548 415.375 338.759 415.615 337.953 415.615Z" fill="#1F1F1F"/>
<rect x="383.299" y="337.977" width="104.918" height="104.918" rx="6.99454" fill="white"/>
<path d="M408.042 412.468C406.22 412.468 404.673 411.831 403.399 410.557C402.126 409.284 401.487 407.735 401.484 405.91C401.481 404.086 402.12 402.538 403.399 401.268C404.679 399.997 406.226 399.359 408.042 399.353H464.872C466.694 399.353 468.243 399.991 469.519 401.268C470.796 402.544 471.433 404.092 471.43 405.91C471.427 407.729 470.79 409.278 469.519 410.557C468.249 411.837 466.7 412.474 464.872 412.468H408.042ZM408.042 381.867C406.22 381.867 404.673 381.23 403.399 379.956C402.126 378.683 401.487 377.134 401.484 375.309C401.481 373.485 402.12 371.937 403.399 370.667C404.679 369.396 406.226 368.758 408.042 368.752H464.872C466.694 368.752 468.243 369.39 469.519 370.667C470.796 371.943 471.433 373.491 471.43 375.309C471.427 377.128 470.79 378.677 469.519 379.956C468.249 381.236 466.7 381.873 464.872 381.867H408.042Z" fill="#1F1F1F"/>
<defs>
<linearGradient id="paint0_linear_60_157" x1="489.617" y1="97.6417" x2="359.796" y2="438.502" gradientUnits="userSpaceOnUse">
<stop stop-color="#D9F99D"/>
<stop offset="1" stop-color="#84CC16"/>
</linearGradient>
<linearGradient id="paint1_linear_60_157" x1="298.668" y1="468.264" x2="1304.89" y2="-467.204" gradientUnits="userSpaceOnUse">
<stop stop-color="#1F1F1F"/>
<stop offset="1" stop-color="#F5F5F5"/>
</linearGradient>
</defs>
</svg>
